<svg width="152" height="152" viewBox="0 0 152 152" fill="none" xmlns="http://www.w3.org/2000/svg">
<mask id="mask0_38_9836" style="mask-type:alpha" maskUnits="userSpaceOnUse" x="0" y="0" width="152" height="152">
<rect width="152" height="152" rx="32" fill="white"/>
</mask>
<g mask="url(#mask0_38_9836)">
<rect width="152" height="152" fill="#F63448"/>
<path d="M39.125 76C39.125 96.7106 55.2892 112.875 76 112.875C96.7108 112.875 112.875 96.7106 112.875 76C112.875 55.2894 96.7108 39.125 76 39.125C55.2892 39.125 39.125 55.2894 39.125 76Z" stroke="white" stroke-width="6" stroke-miterlimit="10" stroke-linecap="round" stroke-linejoin="round"/>
</g>
<path fill-rule="evenodd" clip-rule="evenodd" d="M79.3334 55.9996V58.3031C82.2606 58.4405 84.6499 58.9168 85.9233 59.211C87.9484 59.679 89.8705 61.2533 89.2051 63.582C88.0229 67.72 82.2417 65.148 79.3334 64.9788V87.0202C82.652 86.8272 89.3334 83.9123 89.3334 89.3329C89.3334 90.8212 88.3468 92.1292 86.9157 92.538C84.4664 93.2341 81.8722 93.5768 79.3334 93.696V95.9996C79.3334 100.299 72.6667 100.299 72.6667 95.9996V93.2636C55.0311 89.8021 55.0309 62.1966 72.6667 58.7354V55.9996C72.6667 51.7006 79.3334 51.7006 79.3334 55.9996ZM72.6667 86.4099C63.6449 83.7526 63.6447 68.2462 72.6667 65.589V86.4099Z" fill="white"/>
</svg>
