<svg width="20" height="20" viewBox="0 0 20 20" fill="none" xmlns="http://www.w3.org/2000/svg">
<path d="M15 0H5C2.24 0 0 2.24 0 5V15C0 17.76 2.24 20 5 20H15C17.76 20 20 17.76 20 15V5C20 2.24 17.76 0 15 0ZM10 15C7.24 15 5 12.76 5 10C5 7.24 7.24 5 10 5C12.76 5 15 7.24 15 10C15 12.76 12.76 15 10 15ZM15.35 5.62C14.8 5.62 14.35 5.17 14.35 4.62C14.35 4.07 14.8 3.62 15.35 3.62C15.9 3.62 16.35 4.07 16.35 4.62C16.35 5.17 15.9 5.62 15.35 5.62Z" fill="white"/>
<path d="M10 13C11.6569 13 13 11.6569 13 10C13 8.34315 11.6569 7 10 7C8.34315 7 7 8.34315 7 10C7 11.6569 8.34315 13 10 13Z" fill="white"/>
</svg>
