<svg width="14" height="16" viewBox="0 0 14 16" fill="none" xmlns="http://www.w3.org/2000/svg">
<path d="M11.1716 1.49112C10.4171 0.873347 9.53493 0.430718 8.58867 0.195159C7.64241 -0.0404 6.65567 -0.0630176 5.69961 0.128938C4.47032 0.380967 3.33938 0.981049 2.44152 1.8577C1.54366 2.73435 0.916716 3.85062 0.635377 5.07354C0.354038 6.29645 0.430161 7.57447 0.854677 8.75534C1.27919 9.93621 2.03421 10.9702 3.02979 11.734C4.16646 12.566 5.13426 13.6068 5.88143 14.801L6.39052 15.6475C6.45517 15.755 6.54655 15.844 6.65577 15.9058C6.76498 15.9675 6.88832 16 7.01379 16C7.13926 16 7.2626 15.9675 7.37181 15.9058C7.48103 15.844 7.57241 15.755 7.63706 15.6475L8.12507 14.8344C8.7757 13.6907 9.66283 12.6989 10.7273 11.9253C11.5619 11.3511 12.2516 10.5907 12.7421 9.70432C13.2326 8.81788 13.5104 7.82959 13.5535 6.81743C13.5967 5.80527 13.4041 4.79692 12.9908 3.87195C12.5776 2.94698 11.955 2.13069 11.1723 1.48748L11.1716 1.49112ZM7.01306 9.45549C6.4377 9.45549 5.87526 9.28488 5.39686 8.96522C4.91846 8.64557 4.54559 8.19123 4.32541 7.65966C4.10523 7.1281 4.04762 6.54317 4.15987 5.97886C4.27211 5.41456 4.54918 4.8962 4.95602 4.48936C5.36287 4.08252 5.88122 3.80545 6.44553 3.6932C7.00984 3.58095 7.59476 3.63856 8.12633 3.85875C8.65789 4.07893 9.11223 4.4518 9.43189 4.93019C9.75154 5.40859 9.92216 5.97104 9.92216 6.5464C9.92216 7.31794 9.61567 8.05788 9.0701 8.60344C8.52454 9.149 7.7846 9.45549 7.01306 9.45549Z" fill="white"/>
</svg>
