<svg width="14" height="20" viewBox="0 0 14 20" fill="none" xmlns="http://www.w3.org/2000/svg">
<path d="M9.48698 0H4.48698C3.38247 0.00181795 2.32372 0.441388 1.54271 1.2224C0.761701 2.0034 0.32213 3.06216 0.320312 4.16667V13.3333C0.320313 15.1014 1.02269 16.7971 2.27293 18.0474C3.52318 19.2976 5.21887 20 6.98698 20C8.75509 20 10.4508 19.2976 11.701 18.0474C12.9513 16.7971 13.6536 15.1014 13.6536 13.3333V4.16667C13.6518 3.06216 13.2123 2.0034 12.4313 1.2224C11.6502 0.441388 10.5915 0.00181795 9.48698 0ZM6.15365 6.66667V3.75C6.15365 3.52899 6.24144 3.31702 6.39772 3.16074C6.554 3.00446 6.76597 2.91667 6.98698 2.91667C7.20799 2.91667 7.41996 3.00446 7.57624 3.16074C7.73252 3.31702 7.82031 3.52899 7.82031 3.75V6.66667C7.82031 6.88768 7.73252 7.09964 7.57624 7.25592C7.41996 7.4122 7.20799 7.5 6.98698 7.5C6.76597 7.5 6.554 7.4122 6.39772 7.25592C6.24144 7.09964 6.15365 6.88768 6.15365 6.66667Z" fill="black" fill-opacity="0.32"/>
</svg>
