<svg width="20" height="20" viewBox="0 0 20 20" fill="none" xmlns="http://www.w3.org/2000/svg">
<path d="M12.487 0H7.48698C6.38247 0.00181795 5.32372 0.441388 4.54271 1.2224C3.7617 2.0034 3.32213 3.06216 3.32031 4.16667V13.3333C3.32031 15.1014 4.02269 16.7971 5.27293 18.0474C6.52318 19.2976 8.21887 20 9.98698 20C11.7551 20 13.4508 19.2976 14.701 18.0474C15.9513 16.7971 16.6536 15.1014 16.6536 13.3333V4.16667C16.6518 3.06216 16.2123 2.0034 15.4313 1.2224C14.6502 0.441388 13.5915 0.00181795 12.487 0ZM9.15365 6.66667V3.75C9.15365 3.52899 9.24144 3.31702 9.39772 3.16074C9.554 3.00446 9.76597 2.91667 9.98698 2.91667C10.208 2.91667 10.42 3.00446 10.5762 3.16074C10.7325 3.31702 10.8203 3.52899 10.8203 3.75V6.66667C10.8203 6.88768 10.7325 7.09964 10.5762 7.25592C10.42 7.4122 10.208 7.5 9.98698 7.5C9.76597 7.5 9.554 7.4122 9.39772 7.25592C9.24144 7.09964 9.15365 6.88768 9.15365 6.66667Z" fill="white" fill-opacity="0.32"/>
</svg>
