<svg width="152" height="152" viewBox="0 0 152 152" fill="none" xmlns="http://www.w3.org/2000/svg">
<g clip-path="url(#clip0_38_9852)">
<mask id="mask0_38_9852" style="mask-type:alpha" maskUnits="userSpaceOnUse" x="0" y="0" width="152" height="152">
<rect width="152" height="152" rx="32" fill="#215CFF"/>
</mask>
<g mask="url(#mask0_38_9852)">
<rect width="152" height="152" fill="#04B159"/>
</g>
<path fill-rule="evenodd" clip-rule="evenodd" d="M107.957 50.1073C108.172 48.6963 107.57 47.2824 106.406 46.4519C105.242 45.6244 103.709 45.5202 102.444 46.184C92.3205 51.5004 56.9064 70.093 46.0294 75.8024C44.6869 76.5049 43.8951 77.9397 44.0112 79.4489C44.1273 80.9581 45.1275 82.2559 46.5623 82.7471C56.9927 86.3221 88.162 97.0085 95.9253 99.6697C96.988 100.036 98.1608 99.9079 99.1223 99.3274C100.084 98.744 100.736 97.7646 100.905 96.6513L107.957 50.1073ZM49.4884 79.0291L96.6099 95.1838L103.343 50.7562L49.4884 79.0291Z" fill="white"/>
<path fill-rule="evenodd" clip-rule="evenodd" d="M70.4145 88.7989L106.263 51.3905C107.115 50.5004 107.085 49.0865 106.195 48.2352C105.308 47.3808 103.891 47.4106 103.039 48.3006L67.1907 85.7091C66.3364 86.5991 66.3662 88.0131 67.2562 88.8674C68.1463 89.7188 69.5602 89.689 70.4145 88.7989Z" fill="white"/>
<path fill-rule="evenodd" clip-rule="evenodd" d="M71.0339 100.986V87.254C71.0339 86.0217 70.0338 85.0215 68.8014 85.0215C67.569 85.0215 66.5688 86.0217 66.5688 87.254V102.486C66.5688 103.98 67.447 105.335 68.8073 105.945C70.1707 106.558 71.7632 106.314 72.8795 105.32C76.9338 101.718 84.3131 95.1572 84.3131 95.1572C85.2329 94.3386 85.3162 92.9277 84.4976 92.0049C83.679 91.0851 82.2681 91.0017 81.3483 91.8203L71.0339 100.986Z" fill="white"/>
</g>
<defs>
<clipPath id="clip0_38_9852">
<rect width="152" height="152" fill="white"/>
</clipPath>
</defs>
</svg>
