<svg width="28" height="60" viewBox="0 0 28 60" fill="none" xmlns="http://www.w3.org/2000/svg">
<path d="M27.0004 27.1992C27.0004 26.8793 26.8805 26.5754 26.6566 26.3514C26.4246 26.1274 26.1203 25.9992 25.8004 25.9992L18.2004 26.0075V18.3992C18.2004 18.0873 18.0805 17.7754 17.8566 17.5514C17.6246 17.3274 17.3203 17.1992 17.0004 17.1992L11.4082 17.2075C10.7446 17.2075 10.2082 17.7434 10.2082 18.4075V25.9992H2.60039C2.28831 25.9992 1.98439 26.1274 1.75231 26.3514C1.52855 26.5754 1.40039 26.8793 1.40039 27.1992V32.8075C1.40039 33.4713 1.94455 34.0075 2.60039 34.0075H10.2082L10.2004 41.5992C10.2004 41.9193 10.3286 42.2235 10.5523 42.4473C10.7766 42.6793 11.0805 42.7992 11.4004 42.7992H17.0004C17.6645 42.7992 18.2004 42.2633 18.2004 41.5992V33.9992H25.8004C26.4645 33.9992 27.0004 33.4633 27.0004 32.7992V27.1992Z" fill="#CA92E3"/>
</svg>
